<svg xmlns="http://www.w3.org/2000/svg" width="276" height="502" viewBox="0 0 276 502">
<g>
<path d="M 59.68 491.35 C59.31,490.97 59.00,485.89 59.00,480.05 C59.00,469.53 58.98,469.42 56.25,467.80 C54.74,466.91 52.15,464.80 50.50,463.12 C48.85,461.43 47.07,460.04 46.56,460.03 C44.46,459.97 22.57,442.34 14.47,434.20 L 12.18 431.90 L 12.71 406.20 C13.00,392.07 13.59,380.12 14.01,379.66 C14.43,379.20 16.84,380.89 19.36,383.41 C21.88,385.94 24.41,388.00 24.97,388.00 C27.28,388.00 25.64,385.13 19.54,378.50 C15.99,374.65 13.07,370.78 13.05,369.89 C13.02,369.00 14.15,366.59 15.55,364.52 L 18.11 360.76 L 17.49 331.46 C17.15,315.35 16.98,292.12 17.10,279.83 C17.44,245.83 17.09,219.04 16.26,213.60 C15.60,209.31 15.05,208.46 11.94,206.85 L 8.38 205.00 L 9.65 197.75 C10.35,193.76 10.94,186.45 10.97,181.50 C11.04,170.61 11.53,168.54 14.33,167.27 C15.53,166.74 18.89,165.21 21.80,163.88 L 27.10 161.47 L 27.58 149.48 C28.45,127.79 28.77,121.61 29.50,111.88 L 30.22 102.26 L 38.36 99.56 C47.21,96.62 65.00,88.10 65.00,86.81 C65.00,86.36 65.63,86.00 66.41,86.00 C67.96,86.00 69.31,72.69 68.90,61.50 C68.78,58.20 69.04,49.13 69.49,41.34 C70.27,27.74 70.39,27.14 72.70,26.09 C75.30,24.91 81.88,24.63 84.42,25.61 C86.25,26.31 89.58,32.75 88.61,33.72 C88.26,34.08 87.43,33.83 86.78,33.18 C84.86,31.26 83.99,31.82 84.38,34.75 C85.24,41.33 85.27,41.35 96.91,40.62 C107.59,39.95 118.23,38.42 132.00,35.58 C136.12,34.73 144.23,33.36 150.00,32.53 C169.12,29.80 182.32,27.39 196.76,24.00 C199.11,23.45 201.95,23.00 203.07,23.00 C204.20,23.00 204.88,22.61 204.59,22.14 C204.07,21.30 201.73,21.57 188.00,24.02 C182.09,25.07 171.75,26.81 158.50,28.97 C155.75,29.42 149.00,30.53 143.50,31.44 C122.10,34.97 87.01,39.34 86.24,38.57 C85.97,38.30 86.00,37.45 86.29,36.68 C86.66,35.72 89.40,35.05 94.92,34.57 C99.83,34.14 103.00,33.42 103.00,32.74 C103.00,32.12 101.86,30.42 100.46,28.96 C98.23,26.63 98.10,26.16 99.45,25.04 C101.75,23.13 103.96,24.53 105.82,29.08 L 107.50 33.18 L 112.89 32.65 C119.94,31.95 120.72,31.01 117.48,27.15 C115.12,24.36 115.00,23.86 116.35,22.51 C118.66,20.19 119.53,20.61 123.30,25.85 L 126.78 30.70 L 132.39 29.68 C135.48,29.12 138.00,28.33 138.00,27.92 C138.00,27.51 136.21,25.47 134.02,23.39 C130.28,19.85 130.13,19.51 131.67,17.81 C132.57,16.81 133.91,16.00 134.65,16.00 C136.34,16.00 142.13,25.06 141.52,26.75 C141.22,27.57 142.08,28.00 144.02,28.00 C148.43,28.00 156.00,25.75 156.00,24.43 C156.00,23.80 154.43,21.76 152.51,19.89 C148.73,16.22 148.21,15.00 150.42,15.00 C151.20,15.00 152.02,14.44 152.25,13.75 C152.71,12.38 157.91,17.71 157.97,19.60 C157.99,20.20 158.88,21.49 159.96,22.46 C161.98,24.29 165.95,24.11 171.71,21.92 L 174.21 20.97 L 170.60 16.98 C166.49,12.43 166.25,11.47 168.90,10.06 C170.47,9.21 171.24,9.62 173.40,12.45 C174.83,14.33 176.00,16.50 176.00,17.28 C176.00,18.05 176.82,19.43 177.82,20.34 C179.44,21.80 180.21,21.83 184.85,20.63 C190.57,19.15 192.00,18.25 190.37,17.20 C188.61,16.05 186.81,11.95 187.39,10.42 C188.38,7.86 191.45,8.94 193.99,12.76 C195.36,14.82 196.87,16.78 197.35,17.13 C197.83,17.47 201.93,16.94 206.47,15.95 C211.01,14.96 217.82,13.85 221.61,13.48 C228.10,12.85 228.64,12.95 230.84,15.32 C233.95,18.65 233.00,21.38 228.05,23.36 L 224.17 24.91 L 223.97 39.71 C223.86,47.84 223.71,82.84 223.64,117.47 C223.50,180.08 223.51,180.45 225.60,182.97 C229.01,187.07 230.21,190.02 229.55,192.66 C229.04,194.68 229.87,196.17 233.96,200.65 C236.73,203.68 239.00,206.97 239.00,207.96 C239.00,210.95 241.40,212.01 248.36,212.12 L 255.00 212.22 L 255.00 220.86 L 255.00 229.50 L 250.17 234.91 L 245.35 240.33 L 234.92 240.56 C218.79,240.91 205.59,241.13 204.63,241.06 C204.15,241.03 204.21,240.44 204.76,239.75 C205.42,238.93 205.46,236.26 204.85,232.00 C203.64,223.43 204.53,218.35 207.59,216.35 C209.45,215.13 210.00,213.88 210.00,210.89 C210.00,207.91 210.77,206.13 213.32,203.25 C216.54,199.62 216.61,199.37 215.40,195.50 C213.57,189.64 213.75,186.90 216.10,184.39 C218.09,182.27 218.21,180.95 218.49,158.33 C218.78,134.61 217.49,92.16 216.45,91.12 C216.15,90.82 215.14,91.05 214.20,91.64 C211.91,93.07 211.36,98.82 213.44,99.61 C216.24,100.69 215.09,103.68 210.75,106.55 C208.41,108.10 201.58,111.87 195.58,114.93 C187.27,119.17 183.97,121.44 181.80,124.43 C180.24,126.59 179.11,128.84 179.30,129.43 C180.00,131.56 186.24,134.98 188.42,134.43 C189.86,134.07 191.23,134.60 192.51,136.01 C194.27,137.96 194.31,138.36 192.94,140.82 C191.97,142.54 190.43,143.62 188.61,143.83 C186.76,144.04 186.02,143.78 186.46,143.06 C186.83,142.46 187.63,142.27 188.22,142.64 C189.75,143.58 191.89,140.30 191.28,137.95 C190.48,134.92 185.28,135.30 183.82,138.50 C182.68,141.00 181.00,141.89 181.00,140.00 C181.00,139.45 180.30,139.00 179.45,139.00 C178.60,139.00 176.60,138.33 175.01,137.50 C173.18,136.56 171.89,136.38 171.50,137.00 C170.56,138.52 163.71,138.19 159.51,136.44 C155.55,134.78 154.41,135.03 155.30,137.34 C155.97,139.08 167.06,141.25 168.45,139.91 C169.94,138.48 170.70,138.78 174.35,142.25 C176.23,144.04 178.98,146.60 180.47,147.94 C182.85,150.08 183.10,150.87 182.55,154.52 C181.67,160.37 183.20,163.73 187.21,164.79 C190.04,165.53 190.48,166.06 190.34,168.58 C190.25,170.18 189.92,181.33 189.60,193.33 C189.04,214.82 189.00,215.22 186.52,218.16 C184.11,221.03 183.99,221.76 183.83,235.33 C183.74,243.12 183.59,251.30 183.51,253.50 C183.34,257.64 183.15,304.68 183.27,313.50 C183.31,316.25 183.07,329.75 182.74,343.50 C181.05,414.58 180.80,433.41 181.46,440.38 C182.52,451.71 183.32,451.37 203.06,431.17 C226.52,407.16 240.44,392.19 245.13,385.93 C247.37,382.94 249.36,380.33 249.56,380.13 C249.75,379.92 250.72,380.06 251.71,380.44 C253.41,381.10 253.41,381.19 251.75,382.12 C250.79,382.66 250.00,383.74 250.00,384.51 C250.00,385.29 247.33,388.78 244.08,392.26 L 238.15 398.59 L 239.16 403.29 C239.71,405.88 240.56,408.00 241.05,408.00 C241.53,408.00 243.32,406.64 245.02,404.98 C249.07,401.02 251.09,402.21 247.33,406.33 C245.77,408.04 243.74,410.02 242.82,410.73 C241.47,411.76 241.33,412.65 242.07,415.25 C242.58,417.03 243.00,419.73 243.00,421.24 C243.00,424.15 244.35,424.88 245.70,422.71 C247.14,420.39 252.21,417.01 253.27,417.67 C253.93,418.08 253.80,418.71 252.90,419.45 C252.13,420.08 249.83,422.37 247.80,424.54 C244.21,428.37 244.13,428.64 245.08,432.88 C245.62,435.29 245.83,437.50 245.54,437.79 C244.75,438.58 241.00,434.90 241.00,433.35 C241.00,431.33 239.50,431.71 236.06,434.61 C233.12,437.08 232.99,437.48 233.62,442.36 C233.98,445.19 234.42,447.68 234.61,447.89 C234.80,448.11 238.15,448.20 242.07,448.10 C252.75,447.83 255.79,449.28 249.97,451.85 C247.91,452.76 243.92,453.08 237.55,452.85 C232.39,452.66 227.86,452.81 227.49,453.18 C227.11,453.55 226.51,457.09 226.15,461.05 L 225.50 468.24 L 210.75 468.38 L 195.99 468.52 L 196.64 460.76 L 197.29 453.00 L 193.89 452.84 C169.20,451.64 170.80,450.97 171.01,462.29 C171.11,467.36 171.15,474.34 171.09,477.82 C171.01,483.78 170.87,484.12 168.75,483.82 C166.76,483.54 166.50,482.92 166.50,478.50 L 166.50 473.50 L 162.50 473.64 C151.44,474.04 103.69,473.93 103.00,473.50 C101.92,472.84 63.91,472.76 63.25,473.42 C62.95,473.71 62.62,477.59 62.50,482.03 C62.31,489.58 61.29,492.95 59.68,491.35 ZM 164.27 468.09 C166.91,467.08 167.00,466.81 167.00,459.46 C167.00,450.81 168.14,447.80 171.32,448.05 C175.35,448.37 175.91,448.01 176.43,444.75 C176.71,442.96 177.23,414.50 177.59,381.50 C177.94,348.50 178.37,313.40 178.54,303.50 C179.44,251.19 179.26,241.67 177.39,240.30 C176.41,239.58 174.35,239.00 172.81,239.00 C171.26,239.00 170.00,238.50 170.00,237.89 C170.00,237.13 171.51,236.99 174.75,237.46 C178.93,238.07 179.32,237.98 178.00,236.69 C177.18,235.89 174.78,234.93 172.67,234.56 L 168.85 233.88 L 169.14 248.69 C169.31,256.84 169.35,275.88 169.24,291.00 C168.97,326.42 169.57,359.71 170.53,363.40 C171.29,366.30 171.29,366.30 167.40,365.70 C165.25,365.37 162.60,364.83 161.50,364.50 C159.52,363.90 159.50,364.36 159.50,409.30 C159.50,444.07 159.79,455.04 160.75,456.19 C161.77,457.42 161.63,458.02 160.00,459.50 C158.13,461.19 154.77,461.31 106.78,461.29 L 55.55 461.27 L 59.38 464.58 C61.56,466.46 64.56,468.02 66.35,468.19 C75.76,469.11 161.83,469.01 164.27,468.09 ZM 222.21 456.25 L 222.50 448.50 L 225.99 448.17 C229.65,447.82 230.96,446.67 230.98,443.75 C231.03,439.02 221.45,446.11 220.42,451.57 C219.88,454.46 219.43,454.95 217.81,454.44 C216.62,454.06 215.10,454.50 213.92,455.57 C210.52,458.65 210.52,456.10 213.92,452.78 C216.75,450.00 217.11,449.10 216.61,446.04 C216.29,444.09 216.02,441.71 216.01,440.75 C215.99,437.69 213.28,438.85 209.13,443.70 C205.15,448.36 205.12,448.47 205.70,454.70 C206.27,460.76 206.20,461.00 204.02,461.00 C201.93,461.00 201.80,460.68 202.38,457.00 C202.78,454.55 202.63,453.00 202.01,453.00 C201.46,453.00 200.94,454.24 200.87,455.75 C200.80,457.26 200.67,459.74 200.57,461.25 L 200.41 464.00 L 211.16 464.00 L 221.92 464.00 L 222.21 456.25 ZM 155.18 455.19 C155.95,454.41 156.79,387.93 156.23,372.30 L 155.87 362.10 L 150.68 360.56 C147.83,359.71 144.89,358.62 144.14,358.13 C142.65,357.16 142.40,342.96 142.91,289.50 C143.06,274.10 142.86,256.10 142.46,249.50 C141.98,241.31 142.14,235.64 142.97,231.64 C143.64,228.42 143.81,225.42 143.34,224.98 C142.88,224.53 140.43,223.86 137.89,223.49 L 133.29 222.82 L 132.65 243.16 C131.48,280.17 132.07,367.79 133.55,377.54 C134.00,380.50 140.50,387.62 148.93,394.42 L 152.37 397.18 L 152.14 411.34 C152.02,419.13 151.96,431.46 152.01,438.75 C152.09,450.10 151.88,452.00 150.55,452.00 C149.29,452.00 149.00,450.64 149.00,444.73 L 149.00 437.46 L 141.25 437.74 C110.69,438.83 106.54,439.19 108.49,440.61 C109.53,441.38 112.09,442.00 114.17,442.00 C118.68,442.00 126.00,444.73 126.00,446.41 C126.00,448.38 119.79,450.00 112.24,450.00 C108.33,450.00 103.87,450.48 102.33,451.07 C100.78,451.65 98.05,451.86 96.26,451.52 C93.22,450.95 93.00,450.64 93.00,446.89 C93.00,441.04 91.58,438.97 87.72,439.18 C85.95,439.28 74.04,439.02 61.25,438.59 C36.57,437.78 34.45,438.15 42.00,442.00 C47.88,445.00 47.19,446.41 40.25,445.60 C34.58,444.93 34.53,444.95 36.84,446.71 C38.13,447.70 40.38,449.45 41.84,450.61 C43.30,451.78 45.62,453.07 47.00,453.49 C48.38,453.90 50.06,454.69 50.75,455.24 C51.53,455.87 59.28,456.09 71.25,455.84 C81.84,455.61 94.78,455.67 100.00,455.96 C112.39,456.66 154.30,456.07 155.18,455.19 ZM 200.98 447.52 C201.85,446.48 201.95,444.94 201.31,442.27 L 200.42 438.50 L 195.46 443.34 C191.21,447.48 190.86,448.09 193.01,447.63 C194.39,447.33 196.19,447.51 197.01,448.03 C199.03,449.31 199.56,449.24 200.98,447.52 ZM 105.31 445.75 C106.85,444.61 106.71,444.21 103.75,441.27 C101.96,439.49 99.75,437.36 98.84,436.54 C97.93,435.71 96.87,433.12 96.48,430.77 C96.10,428.42 95.06,425.68 94.18,424.69 C93.03,423.39 92.41,419.98 92.01,412.69 C91.47,403.07 90.79,400.00 89.19,400.00 C88.81,400.00 86.59,401.75 84.25,403.88 C79.22,408.48 78.86,411.19 82.44,417.32 C87.79,426.47 91.21,432.83 94.50,439.75 C97.59,446.23 98.25,447.00 100.78,447.00 C102.34,447.00 104.38,446.44 105.31,445.75 ZM 225.09 441.29 C228.39,438.17 229.00,436.96 228.98,433.54 C228.96,426.59 227.68,425.93 223.04,430.46 C219.47,433.95 219.00,434.94 219.00,439.04 C219.00,443.20 219.53,445.00 220.76,445.00 C220.99,445.00 222.94,443.33 225.09,441.29 ZM 214.30 430.50 C213.98,428.30 213.58,426.34 213.41,426.13 C213.24,425.93 210.81,427.93 208.01,430.58 C203.47,434.89 203.00,435.72 203.58,438.45 C204.61,443.27 204.87,443.28 210.01,438.77 C214.63,434.71 214.84,434.30 214.30,430.50 ZM 29.00 440.24 C29.00,439.82 27.93,438.32 26.62,436.91 C25.31,435.50 23.93,432.96 23.56,431.28 C23.00,428.73 23.33,427.88 25.57,426.13 C28.09,424.14 28.15,423.88 26.71,421.67 C25.51,419.85 25.29,417.54 25.71,411.33 L 26.26 403.34 L 22.15 396.92 C19.89,393.39 17.98,390.73 17.90,391.00 C17.83,391.27 17.63,400.50 17.46,411.50 L 17.15 431.50 L 22.33 436.23 C27.35,440.82 29.00,441.81 29.00,440.24 ZM 73.75 434.40 C87.05,434.90 88.00,434.82 88.00,433.13 C88.00,432.13 86.97,430.12 85.72,428.66 L 83.44 426.00 L 61.44 426.00 C40.64,426.00 39.35,426.11 37.72,428.01 C36.14,429.86 35.39,434.05 36.44,435.11 C36.69,435.35 41.97,435.17 48.19,434.70 C54.41,434.23 65.91,434.10 73.75,434.40 ZM 146.75 433.14 C148.63,433.02 149.00,432.42 149.00,429.50 L 149.00 426.00 L 124.00 426.00 C99.40,426.00 99.00,426.03 99.00,428.07 C99.00,429.20 99.44,430.95 99.98,431.95 C100.88,433.64 102.54,433.76 122.73,433.53 C134.70,433.40 145.51,433.22 146.75,433.14 ZM 237.04 430.81 C239.58,428.93 240.00,427.98 239.97,424.06 C239.95,421.55 239.35,418.73 238.63,417.78 C237.42,416.18 237.12,416.26 234.66,418.83 C232.66,420.92 232.00,422.63 232.00,425.72 C232.00,429.69 232.75,433.00 233.65,433.00 C233.89,433.00 235.41,432.02 237.04,430.81 ZM 46.20 417.79 C50.76,414.73 56.53,411.23 59.00,410.03 C61.47,408.83 64.18,407.51 65.00,407.10 C66.34,406.44 70.97,398.30 72.38,394.11 C72.68,393.23 73.59,390.74 74.41,388.58 C75.22,386.42 76.17,382.93 76.53,380.83 L 77.18 377.00 L 72.72 377.00 L 68.26 377.00 L 67.69 381.25 C64.85,402.20 65.04,401.89 52.00,407.87 C46.70,410.31 42.28,414.17 37.27,420.74 C35.27,423.36 33.04,426.09 32.32,426.82 C31.59,427.55 31.00,428.79 31.00,429.57 C31.00,430.36 32.55,429.29 34.45,427.19 C36.35,425.09 41.63,420.86 46.20,417.79 ZM 225.08 424.70 C227.57,422.15 227.72,421.57 226.80,418.20 C225.26,412.59 225.06,412.54 220.88,416.61 C216.93,420.47 216.18,423.32 217.64,428.79 C218.24,431.01 218.32,431.02 220.30,429.29 C221.42,428.31 223.57,426.24 225.08,424.70 ZM 133.00 421.68 L 148.50 421.50 L 148.79 411.72 L 149.07 401.93 L 145.79 402.12 C143.98,402.23 136.10,401.97 128.29,401.55 C120.47,401.12 109.67,401.09 104.29,401.48 L 94.50 402.18 L 94.57 411.11 C94.60,416.02 95.05,420.43 95.57,420.92 C97.13,422.40 100.12,422.70 109.00,422.27 C113.68,422.04 124.47,421.78 133.00,421.68 ZM 34.33 419.38 C40.26,412.24 47.35,405.86 51.92,403.54 C54.71,402.12 57.00,400.79 57.00,400.58 C57.00,400.36 54.41,400.38 51.25,400.61 C48.09,400.85 42.12,401.15 38.00,401.28 L 30.50 401.52 L 30.22 411.76 C29.91,422.83 30.52,423.96 34.33,419.38 ZM 80.86 420.47 C81.09,420.25 80.48,418.85 79.51,417.38 C78.13,415.27 77.86,413.33 78.26,408.39 C78.53,404.93 78.49,401.82 78.16,401.49 C77.83,401.16 77.55,399.94 77.53,398.78 C77.47,394.76 75.27,395.95 73.03,401.21 C70.17,407.93 68.56,409.73 64.65,410.54 C59.44,411.63 47.61,419.56 48.66,421.26 C49.19,422.12 79.97,421.36 80.86,420.47 ZM 234.46 415.27 C236.95,412.77 237.14,412.09 236.53,407.53 C236.17,404.79 235.66,402.33 235.40,402.07 C235.14,401.81 233.35,403.19 231.41,405.13 C227.91,408.62 227.89,408.69 229.06,413.33 C229.71,415.90 230.57,418.00 230.98,418.00 C231.39,418.00 232.96,416.77 234.46,415.27 ZM 86.50 399.52 C88.70,397.63 89.96,396.06 89.31,396.04 C87.23,395.97 81.00,400.14 81.00,401.60 C81.00,403.72 82.12,403.30 86.50,399.52 ZM 47.89 396.06 C59.07,395.18 60.95,394.49 60.98,391.25 C60.99,390.56 60.11,390.00 59.02,390.00 C55.67,390.00 26.52,392.19 26.22,392.47 C26.07,392.61 26.39,393.90 26.94,395.35 C27.85,397.74 28.31,397.93 32.22,397.46 C34.57,397.19 41.63,396.55 47.89,396.06 ZM 86.17 394.35 C87.91,393.03 88.55,391.90 88.03,391.04 C86.96,389.32 79.96,394.73 80.71,396.70 C81.03,397.51 81.68,397.72 82.37,397.20 C82.99,396.74 84.70,395.46 86.17,394.35 ZM 143.89 396.57 C144.74,396.04 143.92,394.92 141.22,392.93 L 137.32 390.06 L 115.58 391.02 C103.63,391.55 93.43,392.23 92.92,392.55 C91.67,393.32 91.76,395.36 93.11,396.71 C94.39,397.99 141.81,397.85 143.89,396.57 ZM 85.89 387.99 C87.21,386.87 88.07,385.74 87.81,385.47 C87.21,384.88 80.09,390.21 80.04,391.29 C79.99,392.25 82.68,390.74 85.89,387.99 ZM 87.30 383.00 C88.23,383.00 89.00,382.55 89.00,382.00 C89.00,379.63 82.32,382.86 79.77,386.47 C77.82,389.21 79.36,389.04 82.30,386.20 C84.11,384.44 86.36,383.00 87.30,383.00 ZM 51.20 386.13 C56.54,385.78 61.34,385.05 61.88,384.50 C62.41,383.95 63.13,381.60 63.47,379.27 C63.97,375.87 63.67,374.47 61.93,372.12 C60.04,369.57 59.92,368.78 60.92,365.76 C61.54,363.86 63.42,360.16 65.08,357.53 L 68.11 352.75 L 66.04 350.54 C64.90,349.33 63.05,345.73 61.93,342.54 C59.29,335.04 60.05,327.29 64.00,321.50 C67.28,316.68 70.00,311.49 70.00,310.05 C70.00,308.51 67.09,308.77 65.39,310.47 C64.58,311.28 63.38,314.20 62.72,316.97 C61.08,323.89 59.60,323.30 60.27,315.98 C60.79,310.25 60.65,309.78 57.41,305.89 C53.46,301.17 53.25,299.38 56.01,293.98 C58.39,289.31 62.83,286.67 66.65,287.63 L 69.33 288.30 L 68.68 268.33 C68.33,257.35 68.43,247.94 68.91,247.43 C70.12,246.12 70.86,235.03 69.78,234.36 C69.28,234.06 64.97,233.66 60.19,233.49 C55.41,233.31 51.72,232.79 52.00,232.33 C52.28,231.87 56.59,231.59 61.60,231.71 L 70.70 231.92 L 73.23 225.53 L 75.76 219.15 L 68.41 218.46 C64.37,218.08 57.90,217.95 54.03,218.17 C50.16,218.39 47.00,218.22 47.00,217.80 C47.00,216.18 52.79,215.74 65.51,216.37 C76.75,216.94 78.92,216.81 80.00,215.49 C80.71,214.65 81.11,213.79 80.89,213.59 C80.68,213.40 73.53,212.92 65.01,212.54 C56.49,212.16 49.33,211.66 49.09,211.43 C47.88,210.22 51.18,209.94 66.51,209.94 C80.57,209.95 83.58,210.22 85.08,211.58 C86.07,212.47 87.35,212.90 87.94,212.54 C89.75,211.42 91.25,213.00 89.91,214.61 C88.00,216.90 89.80,217.55 92.94,215.70 C96.41,213.65 98.68,213.57 103.13,215.35 C104.98,216.09 110.10,216.77 114.50,216.86 C118.90,216.95 123.74,217.28 125.25,217.59 C127.65,218.09 128.00,217.85 128.00,215.72 C128.00,213.30 127.95,213.29 114.30,212.58 C106.76,212.19 99.35,211.62 97.82,211.31 C92.20,210.19 96.12,209.45 106.57,209.67 C112.46,209.79 116.89,209.52 116.39,209.07 C115.08,207.88 81.21,205.99 61.17,206.00 L 43.84 206.00 L 44.17 224.75 C44.46,241.45 44.00,266.82 42.49,317.50 C42.00,333.95 40.67,353.11 38.82,370.25 C38.08,377.13 37.39,380.00 36.45,380.00 C35.73,380.00 34.88,380.79 34.58,381.76 C34.27,382.73 33.03,383.96 31.82,384.51 C30.62,385.05 29.43,386.13 29.18,386.91 C28.81,388.07 29.84,388.18 35.11,387.53 C38.63,387.10 45.87,386.47 51.20,386.13 ZM 130.25 386.38 C133.49,385.75 133.64,385.04 131.16,382.18 C129.47,380.24 129.26,376.96 128.63,342.74 C128.25,322.22 128.25,297.91 128.63,288.71 L 129.31 272.00 L 125.21 272.00 C122.96,272.00 120.84,271.55 120.50,271.00 C120.12,270.39 121.66,270.00 124.44,270.00 C128.63,270.00 129.00,269.80 129.00,267.52 C129.00,264.64 126.52,263.68 120.40,264.18 L 116.50 264.50 L 116.20 270.32 C115.84,277.24 113.92,277.62 112.79,270.99 C111.93,265.97 110.94,264.67 108.37,265.17 C105.75,265.67 105.45,268.69 107.94,269.48 C109.07,269.84 110.00,270.90 110.00,271.84 C110.00,272.79 110.70,274.56 111.56,275.78 C112.41,277.00 112.66,278.00 112.12,278.00 C111.57,278.00 110.81,277.50 110.43,276.89 C109.95,276.11 109.51,276.17 108.95,277.08 C108.30,278.13 107.86,278.13 106.58,277.06 C105.16,275.89 105.00,276.60 105.00,283.88 C105.00,291.14 105.20,292.00 106.87,292.00 C107.89,292.00 109.96,291.03 111.46,289.86 C113.92,287.92 114.12,287.29 113.53,283.36 C113.10,280.49 113.25,279.00 113.96,279.00 C115.83,279.00 117.19,284.30 116.56,289.14 C116.23,291.69 115.94,305.30 115.93,319.37 C115.90,336.20 115.53,345.17 114.84,345.60 C114.26,345.96 108.68,346.31 102.44,346.38 L 91.09 346.50 L 90.80 349.42 C90.63,351.03 90.04,352.50 89.48,352.68 C87.50,353.33 75.22,342.09 73.09,337.68 C70.96,333.28 70.22,325.00 71.96,325.00 C72.49,325.00 73.41,326.91 74.01,329.25 C75.76,336.12 76.98,338.60 79.99,341.49 C84.13,345.45 85.03,344.06 83.05,336.77 C80.63,327.83 78.42,324.00 75.70,324.00 C74.46,324.00 72.41,323.28 71.15,322.39 C69.00,320.89 68.71,320.92 66.56,322.94 C64.66,324.73 64.31,325.99 64.50,330.30 C65.14,344.63 69.57,350.54 82.25,353.97 C86.83,355.21 87.47,355.87 87.04,358.90 C86.93,359.67 88.07,361.35 89.56,362.64 C91.41,364.23 92.24,365.87 92.15,367.74 C91.79,375.34 92.04,386.26 92.60,387.16 C93.22,388.17 124.40,387.53 130.25,386.38 ZM 30.00 382.04 C30.00,380.28 17.80,368.00 16.72,368.67 C16.08,369.07 17.06,370.57 19.14,372.42 C21.06,374.11 23.72,377.18 25.06,379.24 C27.33,382.73 30.00,384.24 30.00,382.04 ZM 31.83 375.75 C30.54,373.16 21.21,364.46 20.49,365.17 C19.93,365.74 31.12,378.00 32.21,378.00 C32.62,378.00 32.45,376.99 31.83,375.75 ZM 85.90 373.46 C88.36,370.66 88.88,369.34 88.38,367.21 C87.32,362.69 86.31,362.65 85.71,367.09 C85.40,369.41 84.20,372.59 83.04,374.15 C80.05,378.21 82.19,377.68 85.90,373.46 ZM 35.74 371.87 C35.93,369.33 31.37,363.00 29.35,363.00 C26.21,363.00 26.79,366.18 30.62,370.00 C35.18,374.55 35.52,374.67 35.74,371.87 ZM 81.44 370.78 C82.30,369.56 83.00,367.35 83.00,365.87 C83.00,363.60 82.00,362.63 76.47,359.59 C72.87,357.62 69.70,356.00 69.41,356.00 C68.65,356.00 64.00,366.80 64.00,368.58 C64.00,370.71 69.63,372.91 75.19,372.96 C78.94,372.99 80.20,372.55 81.44,370.78 ZM 37.00 362.57 C37.00,361.01 36.28,359.91 35.00,359.50 C33.90,359.15 32.53,358.00 31.96,356.93 C30.73,354.62 29.00,354.39 29.00,356.53 C29.00,358.17 34.77,365.00 36.16,365.00 C36.62,365.00 37.00,363.91 37.00,362.57 ZM 24.93 357.43 C22.51,354.85 21.00,355.06 21.00,357.99 C21.00,359.15 21.85,360.00 23.25,360.23 C26.82,360.82 27.32,359.97 24.93,357.43 ZM 165.00 360.13 C165.00,359.25 151.50,353.99 149.25,354.00 C145.87,354.01 148.76,356.09 155.25,358.34 C163.25,361.10 165.00,361.42 165.00,360.13 ZM 37.00 354.15 C37.00,351.05 31.64,344.49 29.96,345.53 C28.26,346.57 28.92,348.69 32.25,352.84 C36.13,357.69 37.00,357.93 37.00,354.15 ZM 165.00 354.66 C165.00,353.03 161.43,351.32 155.18,349.95 C152.60,349.39 149.71,348.69 148.75,348.40 C147.79,348.10 147.00,348.23 147.01,348.68 C147.01,349.13 149.69,350.33 152.96,351.35 C156.22,352.37 159.71,353.82 160.70,354.57 C163.02,356.33 165.00,356.37 165.00,354.66 ZM 27.00 351.94 C27.00,350.69 23.27,347.00 22.00,347.00 C20.44,347.00 20.81,348.49 23.08,351.37 C25.01,353.83 27.00,354.12 27.00,351.94 ZM 165.00 348.04 C165.00,347.51 163.09,346.55 160.75,345.90 C158.41,345.25 154.53,344.09 152.12,343.33 C148.18,342.08 145.83,342.16 147.17,343.50 C147.81,344.14 162.10,348.81 163.75,348.92 C164.44,348.96 165.00,348.57 165.00,348.04 ZM 38.00 344.00 C38.00,342.35 37.62,341.11 37.16,341.25 C36.70,341.39 35.08,340.04 33.57,338.25 C30.62,334.76 28.51,334.80 29.57,338.33 C30.26,340.65 35.86,347.00 37.20,347.00 C37.64,347.00 38.00,345.65 38.00,344.00 ZM 89.34 342.31 C89.68,340.18 89.47,338.06 88.82,337.29 C88.21,336.55 87.98,335.68 88.31,335.35 C88.64,335.03 87.78,332.52 86.39,329.78 C83.56,324.21 82.08,323.86 84.35,329.30 C85.16,331.23 86.14,335.78 86.53,339.41 C87.31,346.75 88.43,347.90 89.34,342.31 ZM 27.00 343.31 C27.00,341.56 23.26,337.00 21.83,337.00 C20.47,337.00 20.89,339.90 22.62,342.54 C24.47,345.36 27.00,345.81 27.00,343.31 ZM 164.78 342.83 C164.36,341.59 154.82,337.74 149.13,336.52 C146.52,335.95 145.86,336.09 146.21,337.14 C146.45,337.89 150.18,339.51 154.49,340.75 C158.81,341.99 162.56,343.23 162.83,343.50 C163.80,344.46 165.16,343.99 164.78,342.83 ZM 106.00 341.54 C106.00,339.53 103.16,338.18 98.44,337.93 C92.45,337.62 92.00,337.80 92.00,340.50 C92.00,342.93 92.20,343.00 99.00,343.00 C104.48,343.00 106.00,342.68 106.00,341.54 ZM 38.29 336.25 C37.46,334.04 31.75,327.04 30.75,327.02 C29.18,326.98 30.12,329.46 33.25,333.62 C36.54,338.00 39.51,339.55 38.29,336.25 ZM 165.00 336.66 C165.00,335.24 147.25,328.79 146.53,329.95 C145.65,331.37 147.76,332.81 153.00,334.36 C156.02,335.25 159.18,336.43 160.00,336.98 C162.16,338.41 165.00,338.23 165.00,336.66 ZM 27.00 333.69 C27.00,331.35 23.72,327.00 21.96,327.00 C20.29,327.00 20.92,330.63 23.07,333.37 C25.63,336.61 27.00,336.73 27.00,333.69 ZM 111.08 335.00 C111.59,335.00 112.00,331.85 112.00,328.00 C112.00,320.79 111.53,320.11 107.93,322.04 C106.36,322.88 106.00,324.16 106.00,328.87 C106.00,335.04 106.56,336.38 108.78,335.53 C109.54,335.24 110.58,335.00 111.08,335.00 ZM 96.21 331.75 C95.87,329.75 98.02,329.42 99.80,331.20 C100.58,331.98 101.00,332.02 101.00,331.32 C101.00,330.73 100.35,329.70 99.55,329.04 C98.39,328.08 97.46,328.20 95.05,329.63 C91.44,331.76 90.96,334.29 94.25,333.82 C95.75,333.61 96.40,332.92 96.21,331.75 ZM 165.00 331.72 C165.00,331.01 162.04,329.32 158.42,327.97 C154.80,326.62 151.37,324.94 150.80,324.25 C149.22,322.36 147.00,322.75 147.00,324.92 C147.00,326.44 148.55,327.30 154.54,329.08 C158.68,330.31 162.31,331.69 162.60,332.16 C163.40,333.45 165.00,333.16 165.00,331.72 ZM 35.45 321.95 C31.81,318.22 30.00,317.71 30.00,320.39 C30.00,321.10 31.67,323.82 33.72,326.44 L 37.43 331.21 L 38.33 328.51 C39.11,326.16 38.75,325.32 35.45,321.95 ZM 95.71 324.54 C97.79,323.19 101.41,320.70 103.75,319.01 L 108.00 315.94 L 108.00 305.97 C108.00,297.40 107.77,296.00 106.36,296.00 C104.92,296.00 104.81,297.01 105.41,304.46 C106.08,312.71 106.03,312.99 103.52,315.17 C102.10,316.41 98.36,318.49 95.22,319.80 C88.43,322.63 87.54,323.36 88.34,325.43 C89.18,327.64 91.32,327.38 95.71,324.54 ZM 165.00 326.20 C165.00,325.21 154.49,320.49 150.18,319.54 C148.23,319.11 147.00,319.23 147.00,319.86 C147.00,321.22 148.07,321.81 151.71,322.45 C153.38,322.74 156.71,323.88 159.12,324.97 C163.96,327.17 165.00,327.38 165.00,326.20 ZM 27.00 324.84 C27.00,323.08 21.98,316.89 21.03,317.48 C19.81,318.23 20.88,321.49 23.13,323.91 C25.28,326.22 27.00,326.63 27.00,324.84 ZM 39.00 319.44 C39.00,317.71 33.15,310.00 31.83,310.00 C30.05,310.00 31.14,313.29 34.17,317.06 C37.54,321.25 39.00,321.97 39.00,319.44 ZM 80.82 318.25 C80.59,316.32 79.86,315.41 78.33,315.19 C77.14,315.02 75.92,314.23 75.62,313.44 C75.19,312.32 76.05,312.00 79.53,312.00 C83.87,312.00 85.53,310.53 82.50,309.36 C81.68,309.05 81.00,308.46 81.00,308.05 C81.00,306.96 86.01,304.89 87.07,305.55 C88.50,306.43 88.17,312.14 86.62,313.39 C85.32,314.43 83.45,320.00 84.40,320.00 C84.64,320.00 86.95,319.09 89.53,317.99 C93.37,316.34 94.01,315.72 93.05,314.56 C92.23,313.57 91.80,304.20 91.60,282.95 L 91.32 252.75 L 88.16 251.43 C86.42,250.69 85.00,249.58 85.00,248.94 C85.00,248.23 85.68,248.06 86.75,248.51 C91.85,250.61 92.00,250.51 92.00,245.21 C92.00,240.48 91.81,240.12 88.75,238.91 C86.96,238.21 85.16,237.45 84.75,237.23 C84.34,237.01 84.00,237.34 84.00,237.96 C84.00,238.58 85.35,239.86 86.99,240.80 C90.90,243.02 90.79,244.00 86.63,244.00 C83.28,244.00 83.27,244.02 83.60,248.25 C83.79,250.59 83.94,260.71 83.95,270.74 C83.95,287.12 84.15,289.38 85.99,292.97 C87.96,296.85 87.97,297.03 86.20,298.80 C85.20,299.80 84.55,301.16 84.77,301.81 C84.99,302.47 84.68,303.00 84.08,303.00 C83.49,303.00 83.00,302.55 83.00,302.00 C83.00,300.49 80.05,300.80 78.36,302.50 C76.51,304.35 74.00,304.46 74.00,302.69 C74.00,301.97 75.83,300.58 78.06,299.60 C81.22,298.20 82.05,297.33 81.81,295.65 C81.61,294.27 80.66,293.38 79.14,293.17 C74.69,292.54 68.11,301.51 70.94,304.34 C72.48,305.88 72.22,312.05 70.48,315.40 C68.71,318.78 68.83,318.98 73.20,320.01 C79.83,321.59 81.16,321.28 80.82,318.25 ZM 164.82 319.33 C164.61,318.24 161.69,316.67 156.50,314.85 C146.89,311.48 147.00,311.49 147.00,314.00 C147.00,315.27 147.67,316.00 148.83,316.00 C149.84,316.00 153.32,317.11 156.58,318.46 C163.63,321.39 165.25,321.56 164.82,319.33 ZM 27.35 315.28 C26.72,312.74 23.46,309.11 21.75,309.03 C19.89,308.95 21.27,313.50 23.75,315.63 C27.32,318.70 28.19,318.62 27.35,315.28 ZM 97.00 314.00 C97.00,313.45 96.80,313.00 96.56,313.00 C96.32,313.00 95.84,313.45 95.50,314.00 C95.16,314.55 95.36,315.00 95.94,315.00 C96.52,315.00 97.00,314.55 97.00,314.00 ZM 164.00 313.62 C164.00,312.86 163.26,311.63 162.35,310.87 C159.82,308.76 148.01,305.17 147.31,306.30 C146.45,307.70 150.83,310.71 155.50,311.93 C157.70,312.51 160.18,313.43 161.00,313.97 C163.07,315.35 164.00,315.24 164.00,313.62 ZM 36.52 307.62 C33.97,304.28 31.00,302.25 31.00,303.85 C31.00,304.29 32.67,306.59 34.70,308.96 C38.95,313.93 40.47,312.80 36.52,307.62 ZM 102.00 309.12 C102.00,307.73 97.17,304.91 96.54,305.93 C96.23,306.43 96.69,307.55 97.56,308.42 C99.27,310.13 102.00,310.55 102.00,309.12 ZM 27.97 307.75 C27.93,305.86 22.09,299.83 20.98,300.52 C19.34,301.53 19.86,302.93 23.03,306.03 C26.26,309.19 28.02,309.80 27.97,307.75 ZM 164.00 307.72 C164.00,307.01 162.76,305.72 161.25,304.85 C157.44,302.65 148.00,299.66 147.25,300.41 C146.17,301.50 148.45,302.96 154.56,305.09 C157.83,306.23 160.93,307.57 161.45,308.08 C162.80,309.39 164.00,309.22 164.00,307.72 ZM 39.00 303.08 C39.00,301.13 33.63,295.00 31.92,295.00 C30.10,295.00 31.06,297.62 34.21,301.28 C37.80,305.45 39.00,305.90 39.00,303.08 ZM 67.58 300.25 C68.54,297.64 70.46,294.26 71.85,292.75 C74.21,290.17 74.25,290.00 72.37,290.00 C69.33,290.00 65.34,294.96 64.64,299.60 C64.12,303.06 64.46,305.00 65.58,305.00 C65.72,305.00 66.62,302.86 67.58,300.25 ZM 63.88 292.23 C65.87,288.50 62.32,289.43 59.99,293.25 C57.71,296.99 57.51,299.24 59.20,302.32 C60.32,304.34 60.48,304.14 61.54,299.48 C62.17,296.72 63.22,293.46 63.88,292.23 ZM 100.50 302.00 C99.50,300.90 97.97,300.01 97.10,300.03 C95.88,300.06 96.07,300.54 97.86,302.03 C100.94,304.60 102.83,304.57 100.50,302.00 ZM 162.87 299.48 C161.53,298.20 149.48,293.00 147.83,293.00 C147.37,293.00 147.00,293.86 147.00,294.90 C147.00,296.38 148.51,297.27 153.75,298.89 C157.46,300.04 161.18,301.42 162.00,301.96 C164.00,303.26 164.70,301.26 162.87,299.48 ZM 28.00 300.22 C28.00,299.79 26.42,297.95 24.50,296.14 C20.42,292.29 19.72,294.05 23.69,298.20 C26.34,300.96 28.00,301.74 28.00,300.22 ZM 99.69 295.47 C96.82,292.94 95.00,292.32 95.00,293.88 C95.00,295.09 99.17,297.89 101.00,297.92 C101.97,297.93 101.51,297.06 99.69,295.47 ZM 39.00 293.08 C39.00,289.71 38.45,288.73 35.00,286.00 L 31.00 282.83 L 31.00 285.91 C31.00,288.05 32.11,290.22 34.62,293.00 C36.61,295.20 38.41,297.00 38.62,297.00 C38.83,297.00 39.00,295.24 39.00,293.08 ZM 164.00 295.17 C164.00,294.27 162.62,293.53 153.77,289.64 C150.51,288.21 147.79,287.54 147.46,288.07 C147.13,288.59 149.04,289.91 151.69,290.99 C154.33,292.08 157.62,293.61 159.00,294.39 C161.89,296.04 164.00,296.37 164.00,295.17 ZM 28.00 292.58 C28.00,290.91 23.25,285.00 21.91,285.00 C20.08,285.00 21.07,288.46 23.69,291.20 C26.66,294.30 28.00,294.73 28.00,292.58 ZM 162.53 286.64 C160.35,285.05 148.02,280.65 147.42,281.25 C146.31,282.35 148.41,284.96 151.33,286.11 C160.91,289.89 163.50,290.53 163.84,289.18 C164.02,288.45 163.43,287.31 162.53,286.64 ZM 75.97 285.96 C74.08,284.77 73.00,284.76 73.00,285.93 C73.00,286.88 76.12,287.93 76.97,287.26 C77.23,287.06 76.78,286.47 75.97,285.96 ZM 101.75 286.75 C101.20,285.08 96.30,282.37 95.42,283.25 C94.57,284.10 98.96,287.92 100.83,287.97 C101.57,287.99 101.98,287.44 101.75,286.75 ZM 27.40 282.25 C27.05,280.74 25.68,278.38 24.35,277.00 C22.36,274.93 21.78,274.75 21.04,275.95 C20.03,277.57 20.82,279.43 23.96,282.75 C26.83,285.80 28.18,285.60 27.40,282.25 ZM 38.97 284.25 C38.95,283.84 37.17,281.48 35.00,279.00 C30.34,273.68 29.57,275.76 34.16,281.25 C37.11,284.77 39.04,285.97 38.97,284.25 ZM 80.00 282.53 C80.00,280.66 74.36,277.61 73.50,279.01 C73.16,279.55 73.99,280.43 75.34,280.94 C76.70,281.46 78.10,282.35 78.46,282.94 C79.38,284.43 80.00,284.26 80.00,282.53 ZM 164.00 282.98 C164.00,282.41 162.76,281.50 161.25,280.95 C159.74,280.40 156.36,278.81 153.75,277.41 C149.31,275.04 147.00,274.91 147.00,277.02 C147.00,277.52 148.69,278.41 150.75,279.00 C152.81,279.59 156.07,280.90 158.00,281.93 C162.06,284.08 164.00,284.42 164.00,282.98 ZM 102.00 281.03 C102.00,280.16 96.94,277.00 95.55,277.00 C93.89,277.00 95.43,278.85 98.25,280.25 C102.25,282.25 102.00,282.19 102.00,281.03 ZM 36.83 270.79 C35.55,269.82 33.71,268.26 32.75,267.34 C31.10,265.75 31.00,265.78 31.00,267.88 C31.00,269.11 32.69,272.14 34.75,274.62 L 38.50 279.12 L 38.83 275.84 C39.08,273.33 38.61,272.13 36.83,270.79 ZM 164.00 277.62 C164.00,275.52 162.08,274.34 154.71,271.92 C143.83,268.35 144.41,271.66 155.50,276.37 C162.41,279.31 164.00,279.54 164.00,277.62 ZM 80.00 277.22 C80.00,276.34 73.85,273.81 73.23,274.44 C72.80,274.87 77.97,277.89 79.25,277.96 C79.66,277.98 80.00,277.65 80.00,277.22 ZM 102.00 275.19 C102.00,274.74 100.43,273.62 98.50,272.70 C94.35,270.72 93.81,271.78 97.75,274.16 C100.92,276.07 102.00,276.33 102.00,275.19 ZM 28.00 273.80 C28.00,272.45 23.05,267.00 21.81,267.00 C19.97,267.00 21.19,270.58 23.75,272.68 C26.87,275.23 28.00,275.53 28.00,273.80 ZM 165.00 271.19 C165.00,269.12 161.91,267.18 155.21,265.06 C151.20,263.79 147.65,263.02 147.32,263.35 C146.04,264.63 149.46,267.04 154.86,268.67 C157.96,269.61 160.93,270.74 161.45,271.19 C162.68,272.24 165.00,272.24 165.00,271.19 ZM 102.00 269.53 C102.00,268.92 96.37,265.99 95.30,266.03 C93.92,266.09 99.15,270.00 100.61,270.00 C101.37,270.00 102.00,269.79 102.00,269.53 ZM 80.00 268.19 C80.00,267.37 74.55,263.00 73.54,263.00 C71.84,263.00 73.42,266.16 75.75,267.43 C78.91,269.14 80.00,269.34 80.00,268.19 ZM 39.00 266.88 C39.00,266.27 37.20,264.02 35.00,261.88 C30.80,257.81 29.81,258.20 32.74,262.79 C35.50,267.11 39.00,269.40 39.00,266.88 ZM 27.57 263.21 C27.22,262.11 26.16,260.94 25.22,260.61 C24.27,260.27 22.94,259.74 22.25,259.42 C20.17,258.45 20.84,260.66 23.64,263.98 C26.43,267.30 28.72,266.85 27.57,263.21 ZM 100.23 263.00 C96.58,260.77 96.00,260.62 96.00,261.85 C96.00,262.85 99.87,264.84 102.00,264.93 C102.82,264.96 102.03,264.09 100.23,263.00 ZM 165.00 263.56 C165.00,261.77 164.15,261.23 160.32,260.56 C158.66,260.26 155.68,259.34 153.68,258.51 C149.44,256.74 148.00,256.62 148.00,258.02 C148.00,259.06 149.31,259.68 158.50,263.08 C164.61,265.34 165.00,265.37 165.00,263.56 ZM 80.00 262.72 C80.00,261.39 75.04,258.00 73.10,258.00 C70.81,258.00 72.15,259.91 75.75,261.79 C77.81,262.86 79.61,263.80 79.75,263.87 C79.89,263.94 80.00,263.42 80.00,262.72 ZM 112.00 259.62 C112.00,257.29 108.77,255.41 106.83,256.61 C105.41,257.48 105.92,259.85 107.75,260.92 C110.60,262.58 112.00,262.15 112.00,259.62 ZM 129.00 260.50 C129.00,259.44 127.91,259.00 125.25,258.98 C123.19,258.98 120.82,258.53 120.00,258.00 C118.92,257.30 119.84,257.03 123.32,257.02 C127.98,257.00 128.12,256.91 127.82,254.25 C127.53,251.73 127.10,251.47 122.75,251.20 C116.78,250.81 116.47,249.00 122.38,249.00 C129.03,249.00 131.44,244.21 125.83,242.13 C123.66,241.33 123.67,241.30 126.31,240.64 C129.27,239.89 129.91,237.56 127.42,236.61 C125.38,235.82 117.52,235.82 116.74,236.60 C115.63,237.70 117.19,240.00 119.05,240.00 C122.07,240.00 122.25,241.84 119.27,242.18 L 116.50 242.50 L 116.21 252.25 L 115.93 262.00 L 122.46 262.00 C127.61,262.00 129.00,261.68 129.00,260.50 ZM 39.35 259.52 C39.70,258.63 38.46,256.67 36.21,254.53 C32.28,250.81 31.00,250.24 31.00,252.21 C31.00,253.15 37.78,261.00 38.60,261.00 C38.70,261.00 39.04,260.34 39.35,259.52 ZM 101.14 257.97 C99.84,256.89 98.27,256.01 97.64,256.03 C97.01,256.05 97.56,256.95 98.86,258.03 C100.16,259.11 101.73,259.99 102.36,259.97 C102.99,259.95 102.44,259.05 101.14,257.97 ZM 165.46 255.54 C165.61,252.10 163.22,249.33 159.28,248.38 C157.75,248.02 154.83,246.88 152.79,245.86 C148.46,243.69 145.85,243.46 146.56,245.30 C147.04,246.55 160.79,253.00 162.97,253.00 C163.53,253.00 164.00,253.72 164.00,254.61 C164.00,255.74 163.49,256.00 162.25,255.50 C161.29,255.11 158.48,254.10 156.00,253.25 C153.52,252.41 150.96,251.29 150.29,250.77 C148.90,249.68 146.73,250.69 147.23,252.20 C147.42,252.75 149.35,253.88 151.54,254.69 C153.72,255.51 157.07,256.79 159.00,257.55 C163.85,259.47 165.30,259.02 165.46,255.54 ZM 28.00 255.98 C28.00,254.65 23.83,251.00 22.31,251.00 C20.36,251.00 20.71,252.21 23.56,255.28 C25.92,257.83 28.00,258.15 28.00,255.98 ZM 80.00 257.22 C80.00,256.14 74.00,252.67 73.32,253.35 C73.02,253.65 74.29,254.81 76.14,255.94 C79.95,258.27 80.00,258.28 80.00,257.22 ZM 112.48 254.04 C113.24,252.81 109.48,249.00 107.50,249.00 C105.17,249.00 105.73,252.57 108.25,253.78 C111.14,255.17 111.75,255.21 112.48,254.04 ZM 103.00 253.22 C103.00,252.45 97.77,249.00 96.60,249.00 C94.99,249.00 96.31,251.11 98.75,252.43 C101.89,254.13 103.00,254.34 103.00,253.22 ZM 40.00 249.51 C40.00,247.04 33.39,240.64 31.83,241.61 C30.13,242.65 31.11,245.08 34.75,248.88 C38.78,253.10 40.00,253.24 40.00,249.51 ZM 80.00 251.53 C80.00,249.88 74.19,246.48 73.16,247.52 C72.50,248.18 77.84,252.99 79.25,253.00 C79.66,253.00 80.00,252.34 80.00,251.53 ZM 28.00 248.69 C28.00,247.97 26.65,246.38 25.00,245.16 C22.16,243.06 22.00,243.04 22.00,244.85 C22.00,245.90 23.01,247.46 24.25,248.33 C27.05,250.28 28.00,250.37 28.00,248.69 ZM 113.00 244.12 C113.00,239.99 112.60,238.97 110.47,237.57 C107.59,235.69 106.00,236.22 106.00,239.08 C106.00,240.26 107.00,241.43 108.50,242.00 C109.88,242.52 111.00,243.35 111.00,243.84 C111.00,244.32 109.88,244.51 108.50,244.24 C105.39,243.65 105.26,245.24 108.25,247.33 C112.11,250.02 113.00,249.42 113.00,244.12 ZM 165.00 247.48 C165.00,246.64 163.76,245.45 162.25,244.83 C160.74,244.21 156.70,242.45 153.27,240.91 C149.84,239.38 146.80,238.51 146.51,238.99 C145.70,240.30 151.26,243.85 158.24,246.46 C161.68,247.76 164.61,248.85 164.75,248.91 C164.89,248.96 165.00,248.32 165.00,247.48 ZM 79.99 246.25 C79.98,245.16 73.84,241.83 73.13,242.54 C72.80,242.87 73.65,244.00 75.01,245.05 C77.56,247.00 80.00,247.59 79.99,246.25 ZM 99.00 244.03 C97.51,242.88 96.35,242.53 96.13,243.17 C95.69,244.41 97.85,245.97 100.00,245.96 C100.99,245.96 100.65,245.30 99.00,244.03 ZM 24.57 235.24 L 21.00 231.56 L 21.00 234.46 C21.00,236.50 21.96,238.16 24.25,240.08 C27.27,242.62 27.52,242.68 27.82,240.87 C28.02,239.68 26.75,237.47 24.57,235.24 ZM 40.00 241.05 C40.00,238.94 34.29,233.01 32.25,233.00 C29.90,233.00 31.00,235.30 35.17,239.15 C37.46,241.27 39.48,243.00 39.67,243.00 C39.85,243.00 40.00,242.12 40.00,241.05 ZM 103.00 241.95 C103.00,240.83 97.99,236.08 96.75,236.03 C95.13,235.96 96.14,238.21 98.75,240.52 C101.75,243.15 103.00,243.58 103.00,241.95 ZM 165.00 240.62 C165.00,238.57 163.16,237.40 156.28,235.09 C149.72,232.89 147.00,232.50 147.00,233.77 C147.00,234.75 154.27,238.60 159.50,240.40 C164.81,242.21 165.00,242.22 165.00,240.62 ZM 80.00 240.06 C80.00,239.05 76.07,236.00 74.78,236.00 C73.29,236.00 74.01,238.91 75.75,239.92 C77.97,241.21 80.00,241.28 80.00,240.06 ZM 93.00 235.50 C93.00,233.78 89.16,231.00 86.78,231.00 C83.74,231.00 84.73,234.51 88.25,236.20 C91.74,237.88 93.00,237.69 93.00,235.50 ZM 163.66 232.54 C163.01,230.87 149.37,226.30 148.27,227.39 C147.35,228.32 150.75,230.98 152.94,231.05 C153.80,231.07 156.52,232.15 159.00,233.45 C163.34,235.74 164.77,235.46 163.66,232.54 ZM 225.80 234.80 C227.71,232.89 227.19,231.86 225.00,233.23 C222.98,234.49 222.33,236.00 223.80,236.00 C224.24,236.00 225.14,235.46 225.80,234.80 ZM 243.89 234.12 C245.20,233.11 245.83,232.02 245.30,231.68 C244.18,230.99 240.00,233.65 240.00,235.06 C240.00,236.46 241.22,236.17 243.89,234.12 ZM 36.83 227.93 C30.17,222.23 28.70,225.29 35.25,231.24 C39.21,234.83 39.52,234.95 39.83,232.94 C40.06,231.48 39.09,229.86 36.83,227.93 ZM 81.00 233.66 C81.00,232.17 76.09,229.57 75.12,230.55 C74.44,231.23 78.67,235.00 80.11,235.00 C80.60,235.00 81.00,234.40 81.00,233.66 ZM 101.77 233.82 C101.19,232.08 98.22,230.45 97.30,231.37 C96.86,231.81 97.38,232.80 98.44,233.58 C100.80,235.31 102.31,235.42 101.77,233.82 ZM 112.00 234.19 C112.00,232.66 109.49,230.20 107.25,229.53 C103.72,228.49 104.64,231.62 108.50,233.81 C110.90,235.16 112.00,235.29 112.00,234.19 ZM 128.50 233.00 C128.50,231.87 127.29,231.50 123.58,231.50 C117.44,231.50 117.37,229.67 123.50,229.00 C130.23,228.26 129.47,226.55 122.25,226.20 C117.62,225.98 116.00,225.53 116.00,224.47 C116.00,223.31 117.16,223.15 122.00,223.66 C127.66,224.25 128.00,224.16 128.00,222.14 C128.00,220.63 127.34,219.96 125.75,219.85 C120.33,219.49 110.00,219.20 110.00,219.40 C110.00,219.52 111.57,222.74 113.48,226.56 C116.69,232.95 117.27,233.55 120.73,234.13 C126.20,235.03 128.50,234.70 128.50,233.00 ZM 231.97 234.04 C232.78,233.53 233.11,232.77 232.70,232.36 C232.29,231.95 231.19,232.38 230.26,233.31 C228.45,235.12 229.54,235.58 231.97,234.04 ZM 28.00 231.05 C28.00,229.04 23.67,224.00 21.95,224.00 C21.43,224.00 21.00,225.40 21.00,227.11 C21.00,229.27 21.40,230.06 22.32,229.71 C23.05,229.43 24.18,230.05 24.83,231.10 C26.37,233.56 28.00,233.53 28.00,231.05 ZM 178.00 231.54 C178.00,228.32 168.84,226.18 168.21,229.25 C167.81,231.23 170.88,232.84 175.25,232.94 C177.03,232.98 178.00,232.48 178.00,231.54 ZM 212.95 225.00 C212.97,220.67 211.70,218.52 209.60,219.32 C208.38,219.79 208.00,221.36 208.00,226.02 L 208.00 232.09 L 210.47 230.30 C212.27,228.98 212.94,227.56 212.95,225.00 ZM 93.81 228.21 C94.05,226.61 93.47,225.90 91.49,225.41 C87.42,224.39 85.88,226.63 89.00,229.03 C91.99,231.33 93.39,231.09 93.81,228.21 ZM 82.34 228.33 C83.22,227.44 80.05,224.00 78.35,224.00 C76.41,224.00 76.69,226.72 78.75,227.92 C80.85,229.14 81.45,229.21 82.34,228.33 ZM 103.00 226.99 C103.00,226.55 102.11,226.42 101.01,226.71 C99.92,226.99 99.26,227.61 99.54,228.07 C100.15,229.05 103.00,228.16 103.00,226.99 ZM 161.25 225.02 C158.46,222.73 151.22,221.38 149.74,222.86 C148.99,223.61 149.47,224.23 151.40,224.96 C152.90,225.53 154.66,226.02 155.32,226.04 C155.97,226.05 157.62,226.70 159.00,227.47 C162.52,229.43 164.29,227.50 161.25,225.02 ZM 237.68 220.78 C238.37,214.09 235.88,205.63 232.60,203.47 C230.14,201.86 225.71,194.63 226.61,193.72 C226.93,193.40 226.89,191.76 226.52,190.07 C225.95,187.50 225.37,187.00 222.92,187.00 C221.31,187.00 220.00,187.45 220.00,188.00 C220.00,188.55 220.93,189.00 222.06,189.00 C223.82,189.00 224.08,189.53 223.81,192.67 C223.44,197.03 221.34,198.21 220.43,194.57 C220.07,193.16 219.33,192.00 218.78,192.00 C217.85,192.00 217.95,192.76 219.60,198.73 C220.09,200.50 219.69,201.17 217.66,201.94 C213.58,203.49 210.29,211.67 213.49,212.30 C214.03,212.41 214.71,211.17 214.99,209.54 C215.34,207.51 216.45,206.12 218.50,205.12 C220.15,204.33 222.31,203.28 223.29,202.80 C229.27,199.89 238.00,214.82 235.13,223.07 C234.52,224.81 234.29,226.67 234.62,227.20 C235.79,229.08 237.11,226.29 237.68,220.78 ZM 247.30 226.93 L 251.10 225.88 L 250.80 220.69 L 250.50 215.50 L 246.00 215.84 C243.52,216.03 241.37,216.31 241.21,216.46 C240.59,217.07 239.33,227.00 239.82,227.49 C240.61,228.28 243.13,228.09 247.30,226.93 ZM 40.00 224.50 C40.00,223.12 39.50,222.00 38.88,222.00 C38.27,222.00 35.20,219.40 32.07,216.23 C25.70,209.79 17.96,203.39 18.07,204.67 C18.27,206.97 22.08,211.80 25.57,214.17 C27.73,215.65 31.73,219.13 34.46,221.92 C37.19,224.72 39.55,227.00 39.71,227.00 C39.87,227.00 40.00,225.88 40.00,224.50 ZM 109.00 226.13 C109.00,222.66 100.32,216.45 96.95,217.52 C94.24,218.38 94.52,219.66 97.59,220.43 C99.01,220.79 101.23,222.14 102.53,223.44 C105.65,226.55 109.00,227.95 109.00,226.13 ZM 178.00 225.08 C178.00,223.74 177.09,222.98 175.00,222.58 C173.35,222.26 170.65,221.74 169.00,221.42 C166.77,220.99 166.00,221.22 166.00,222.30 C166.00,224.96 169.23,226.47 175.75,226.86 C177.35,226.96 178.00,226.44 178.00,225.08 ZM 231.96 225.07 C232.53,224.00 233.00,221.56 233.00,219.65 C233.00,216.62 232.62,216.08 230.12,215.53 C226.83,214.80 217.92,215.68 216.76,216.84 C216.33,217.27 216.27,219.73 216.63,222.31 L 217.27 227.00 L 224.10 227.00 C229.83,227.00 231.10,226.69 231.96,225.07 ZM 98.50 225.04 C100.36,224.28 100.30,224.14 97.68,223.11 C96.14,222.50 93.89,222.01 92.68,222.03 L 90.50 222.07 L 92.86 224.03 C95.46,226.20 95.61,226.22 98.50,225.04 ZM 85.00 222.57 C85.00,221.17 81.31,219.35 80.38,220.29 C79.77,220.90 82.85,224.00 84.07,224.00 C84.58,224.00 85.00,223.36 85.00,222.57 ZM 27.00 220.98 C27.00,219.79 25.97,218.49 24.50,217.82 C23.12,217.19 22.00,216.30 22.00,215.84 C22.00,215.38 21.55,215.00 21.00,215.00 C19.19,215.00 19.95,217.34 22.69,220.20 C25.87,223.52 27.00,223.72 27.00,220.98 ZM 146.51 220.99 C147.50,219.89 148.10,218.77 147.83,218.50 C146.99,217.66 135.24,216.70 133.59,217.33 C130.90,218.36 132.99,220.88 137.34,221.85 C143.61,223.26 144.53,223.17 146.51,220.99 ZM 179.01 218.99 C180.39,216.41 179.90,216.23 168.50,215.05 C163.55,214.54 156.12,213.38 152.00,212.47 C147.88,211.56 141.80,210.74 138.50,210.66 C133.11,210.52 132.50,210.70 132.50,212.50 C132.50,214.25 133.39,214.58 139.50,215.16 C148.02,215.96 158.97,217.52 169.00,219.37 C173.12,220.13 176.82,220.80 177.21,220.87 C177.61,220.94 178.41,220.09 179.01,218.99 ZM 40.00 218.99 C40.00,217.28 28.55,205.00 26.95,205.00 C25.17,205.00 25.99,206.25 32.25,213.05 C38.42,219.75 40.00,220.97 40.00,218.99 ZM 87.77 218.81 C87.15,216.96 85.00,216.65 85.00,218.42 C85.00,219.29 85.71,220.00 86.58,220.00 C87.45,220.00 87.99,219.47 87.77,218.81 ZM 181.80 212.75 C181.58,211.34 180.90,210.65 179.98,210.90 C175.51,212.11 173.28,212.04 172.14,210.67 C171.18,209.52 170.16,209.38 167.70,210.08 C163.31,211.34 163.24,211.33 160.31,208.41 C157.98,206.07 157.48,205.94 155.27,207.12 C153.12,208.27 152.33,208.16 148.96,206.22 C146.85,205.00 144.86,204.42 144.54,204.93 C144.23,205.44 141.50,205.60 138.49,205.29 C134.72,204.90 133.00,205.08 133.00,205.86 C133.00,206.49 133.11,207.00 133.25,207.01 C133.39,207.01 138.68,207.93 145.00,209.06 C151.32,210.18 161.23,211.75 167.00,212.55 C172.77,213.35 178.18,214.17 179.00,214.38 C181.89,215.13 182.14,214.98 181.80,212.75 ZM 40.00 209.22 C40.00,207.68 39.11,205.68 37.99,204.72 C35.63,202.71 34.80,202.60 33.28,204.12 C32.46,204.94 33.01,206.12 35.33,208.60 C39.20,212.70 40.00,212.81 40.00,209.22 ZM 230.00 210.57 C230.00,208.79 225.30,205.00 223.09,205.00 C220.51,205.00 217.00,207.92 217.00,210.06 C217.00,211.78 217.73,212.00 223.50,212.00 C228.46,212.00 230.00,211.66 230.00,210.57 ZM 128.00 209.50 C128.00,207.84 123.51,207.37 122.54,208.93 C122.05,209.73 122.89,210.07 127.25,210.86 C127.66,210.94 128.00,210.32 128.00,209.50 ZM 186.21 198.25 C186.53,184.55 186.67,180.93 187.10,174.50 C187.47,168.88 187.37,168.52 185.40,168.79 C184.25,168.94 182.75,168.40 182.07,167.59 C181.39,166.77 178.74,165.79 176.17,165.42 C173.60,165.05 167.68,163.86 163.00,162.78 C158.32,161.70 153.15,160.69 151.50,160.54 C149.85,160.38 147.34,159.79 145.92,159.22 C144.50,158.64 142.79,158.51 142.12,158.92 C141.31,159.43 140.60,165.57 139.96,177.59 C139.44,187.44 138.74,196.74 138.42,198.25 C137.92,200.65 138.15,201.00 140.23,201.00 C141.54,201.00 143.49,200.34 144.56,199.53 C147.26,197.49 149.75,197.65 150.47,199.91 C151.21,202.24 153.96,203.44 155.37,202.03 C157.10,200.30 159.96,200.87 163.61,203.65 C166.24,205.66 167.37,206.03 168.25,205.15 C169.63,203.77 174.22,203.63 175.55,204.93 C176.07,205.45 178.30,206.05 180.50,206.27 C182.70,206.48 184.84,206.74 185.25,206.83 C185.66,206.92 186.09,203.06 186.21,198.25 ZM 123.88 205.38 C127.52,204.65 127.68,204.05 125.08,200.86 L 123.16 198.50 L 120.27 201.25 C117.05,204.32 115.48,204.69 114.66,202.57 C114.36,201.78 113.24,200.66 112.16,200.09 C110.64,199.27 109.64,199.49 107.61,201.09 C106.17,202.22 105.00,203.54 105.00,204.02 C105.00,204.51 107.81,205.06 111.25,205.26 C114.69,205.45 118.23,205.70 119.12,205.81 C120.02,205.91 122.16,205.72 123.88,205.38 ZM 52.00 201.44 C52.00,199.79 50.42,199.51 49.50,201.00 C48.68,202.32 49.88,204.19 51.07,203.46 C51.58,203.14 52.00,202.23 52.00,201.44 ZM 62.65 202.50 C62.83,201.95 62.54,200.82 62.02,200.00 C61.19,198.68 60.87,198.70 59.42,200.15 C58.51,201.06 58.08,202.33 58.47,202.96 C59.30,204.29 62.18,203.97 62.65,202.50 ZM 73.00 202.05 C73.00,200.75 71.83,200.13 70.40,200.68 C68.17,201.53 68.71,203.89 71.00,203.29 C72.10,203.00 73.00,202.44 73.00,202.05 ZM 87.34 203.33 C87.70,202.96 87.27,201.85 86.38,200.86 C85.14,199.49 84.30,199.30 82.87,200.07 C80.35,201.42 80.51,202.77 83.25,203.29 C84.49,203.53 85.76,203.79 86.08,203.86 C86.40,203.94 86.97,203.70 87.34,203.33 ZM 99.44 201.54 C98.07,199.45 97.55,199.27 95.91,200.29 C92.83,202.21 93.60,204.00 97.52,204.00 C101.03,204.00 101.04,203.99 99.44,201.54 ZM 41.00 201.50 C40.32,200.68 39.31,200.00 38.76,200.00 C38.20,200.00 38.31,200.66 39.00,201.50 C39.68,202.32 40.69,203.00 41.24,203.00 C41.80,203.00 41.69,202.34 41.00,201.50 ZM 135.37 192.11 C136.33,186.87 137.00,177.92 137.00,170.36 L 137.00 157.50 L 114.25 157.72 C101.74,157.84 84.97,158.38 77.00,158.92 C69.03,159.46 59.01,159.75 54.75,159.56 L 47.00 159.22 L 46.82 164.36 C45.83,192.24 46.08,195.00 49.65,195.00 C51.01,195.00 53.04,195.49 54.15,196.08 C55.71,196.91 56.56,196.80 57.91,195.58 C60.11,193.59 63.41,193.55 65.36,195.50 C66.51,196.65 67.48,196.77 69.48,196.01 C71.37,195.29 73.00,195.39 75.36,196.38 C78.13,197.53 78.92,197.53 80.51,196.37 C83.19,194.41 86.03,194.68 88.64,197.13 L 90.90 199.26 L 94.11 196.56 C97.41,193.78 101.56,193.68 103.21,196.33 C103.76,197.22 104.43,197.20 105.96,196.25 C108.42,194.72 111.48,194.65 114.10,196.05 C115.50,196.81 117.01,196.76 119.38,195.91 C123.77,194.32 127.83,195.43 129.01,198.53 C129.55,199.96 130.75,201.00 131.85,201.00 C133.45,201.00 134.00,199.60 135.37,192.11 ZM 25.57 197.92 C26.90,196.45 28.22,195.99 30.09,196.37 C31.66,196.68 34.12,196.15 36.17,195.05 C38.59,193.75 40.11,193.48 41.31,194.15 C42.38,194.75 43.00,194.75 43.00,194.13 C43.00,193.60 42.53,193.01 41.95,192.82 C41.23,192.58 41.21,188.24 41.87,178.78 C42.89,164.29 42.62,161.00 40.38,161.00 C37.96,161.00 21.94,166.87 18.40,169.06 C15.05,171.13 15.00,171.26 14.99,178.33 C14.99,182.27 14.69,188.61 14.33,192.41 L 13.68 199.31 L 16.64 198.72 C18.26,198.40 20.25,198.54 21.05,199.05 C23.10,200.35 23.46,200.26 25.57,197.92 ZM 179.00 159.62 C179.00,158.86 178.10,158.00 177.00,157.71 C175.52,157.32 175.00,157.68 175.00,159.09 C175.00,160.33 175.70,161.00 177.00,161.00 C178.10,161.00 179.00,160.38 179.00,159.62 ZM 41.03 157.28 C45.97,155.85 50.07,155.46 57.78,155.67 L 68.00 155.96 L 68.00 153.15 C68.00,151.60 67.79,150.13 67.54,149.87 C66.71,149.04 33.84,151.89 32.62,152.90 C31.97,153.44 31.33,155.32 31.19,157.07 C30.99,159.70 31.25,160.15 32.72,159.71 C33.70,159.41 37.44,158.32 41.03,157.28 ZM 171.50 156.01 C171.50,151.28 168.66,150.67 167.13,155.06 C165.81,158.86 166.44,160.22 169.34,159.81 C171.08,159.56 171.50,158.82 171.50,156.01 ZM 153.61 156.23 C154.21,155.83 155.27,153.80 155.95,151.71 C157.10,148.18 157.00,147.68 154.48,144.39 C152.04,141.18 151.85,140.34 152.48,135.35 C152.88,132.13 154.16,128.37 155.58,126.28 C157.51,123.45 158.00,121.44 158.00,116.40 C158.00,111.18 158.38,109.72 160.19,108.04 C161.39,106.92 162.74,106.00 163.19,106.00 C163.63,106.00 164.23,106.01 164.51,106.02 C164.79,106.03 166.37,105.34 168.01,104.49 C170.81,103.05 171.00,102.58 171.00,97.12 C171.00,92.34 171.44,90.82 173.41,88.69 C176.38,85.48 179.63,84.59 184.09,85.74 C188.83,86.96 190.56,92.00 188.76,99.28 C188.07,102.07 186.87,104.56 186.09,104.81 C185.21,105.10 184.88,104.76 185.20,103.89 C187.15,98.71 187.14,98.00 185.13,98.00 C184.02,98.00 182.84,97.55 182.50,97.00 C182.15,96.43 182.99,96.00 184.44,96.00 C186.47,96.00 187.00,95.51 187.00,93.61 C187.00,89.21 180.38,89.23 175.63,93.64 C172.27,96.76 172.25,100.34 175.55,106.92 C178.21,112.21 180.62,113.37 183.00,110.50 C183.68,109.68 184.84,109.00 185.57,109.00 C187.61,109.00 201.59,101.52 205.24,98.47 C207.03,96.97 209.28,94.54 210.24,93.05 C211.19,91.57 213.04,89.78 214.34,89.09 C216.58,87.89 216.74,87.13 217.46,74.16 C218.32,58.64 218.30,42.65 217.41,32.75 C216.81,26.17 216.72,26.00 214.01,26.00 C210.66,26.00 209.21,28.61 212.05,29.52 C215.60,30.64 213.93,35.00 209.94,35.00 C209.45,35.00 207.58,33.39 205.79,31.41 C202.59,27.91 202.40,27.84 197.01,28.50 C189.75,29.38 188.97,30.31 192.44,33.93 C194.15,35.72 195.02,37.50 194.66,38.44 C193.56,41.30 190.42,40.06 186.94,35.39 L 183.50 30.79 L 178.28 31.32 C175.40,31.61 172.58,32.14 172.01,32.49 C171.39,32.87 172.39,34.86 174.49,37.42 C178.59,42.42 178.88,44.00 175.69,44.00 C173.63,44.00 170.15,40.44 167.06,35.16 C166.47,34.16 164.89,33.99 160.79,34.51 C152.38,35.56 151.87,36.26 156.26,40.75 C159.86,44.44 161.01,47.00 159.08,47.00 C158.58,47.00 157.49,47.26 156.67,47.57 C155.65,47.97 154.33,46.72 152.54,43.66 C148.62,36.96 148.01,36.65 141.57,37.99 C138.52,38.62 135.78,39.55 135.47,40.06 C135.15,40.56 137.01,43.24 139.60,46.00 C142.19,48.77 144.12,51.20 143.90,51.42 C143.68,51.63 142.39,51.96 141.04,52.15 C139.00,52.44 137.93,51.52 134.76,46.75 C131.43,41.73 130.54,41.00 127.72,41.01 C124.02,41.01 117.00,42.79 117.00,43.72 C117.00,44.07 118.64,46.74 120.65,49.65 C123.69,54.07 124.08,55.20 123.02,56.47 C120.94,58.99 119.41,58.24 116.89,53.50 C114.29,48.60 112.80,47.92 111.40,50.98 C110.91,52.07 106.45,57.31 101.50,62.62 C96.55,67.93 92.11,72.96 91.62,73.78 C90.53,75.64 88.89,110.20 89.09,127.00 C89.36,149.11 89.14,153.00 87.61,153.00 C86.84,153.00 85.98,152.39 85.70,151.65 C85.41,150.91 85.40,134.26 85.67,114.65 C86.11,82.10 86.02,79.00 84.52,79.00 C83.03,79.00 82.90,81.94 83.06,110.75 C83.24,143.95 82.75,151.74 80.34,153.65 C79.23,154.53 87.02,154.77 112.69,154.68 C137.25,154.59 147.05,154.88 148.50,155.75 C150.83,157.13 152.07,157.25 153.61,156.23 ZM 162.00 153.97 C159.16,153.24 158.54,153.45 159.40,154.84 C159.73,155.37 161.01,155.54 162.25,155.21 C164.49,154.62 164.49,154.61 162.00,153.97 ZM 180.00 155.06 C180.00,154.54 179.53,153.83 178.95,153.47 C177.48,152.56 174.74,153.77 175.50,154.99 C176.28,156.27 180.00,156.32 180.00,155.06 ZM 78.38 148.25 C78.70,144.54 79.22,124.62 79.55,104.00 C79.88,83.38 80.32,64.47 80.53,62.00 C81.44,51.35 81.29,30.89 80.28,29.88 C79.71,29.31 78.17,28.98 76.87,29.17 C74.62,29.48 74.47,29.99 73.86,39.00 C73.50,44.22 72.88,72.46 72.47,101.75 L 71.73 155.00 L 74.76 155.00 C77.78,155.00 77.80,154.97 78.38,148.25 ZM 166.00 151.06 C166.00,150.54 165.53,149.83 164.95,149.47 C163.48,148.56 160.74,149.77 161.50,150.99 C162.28,152.27 166.00,152.32 166.00,151.06 ZM 179.00 150.57 C179.00,149.09 177.96,148.63 172.00,147.47 C168.01,146.70 168.63,147.90 173.50,150.43 C177.24,152.37 179.00,152.42 179.00,150.57 ZM 222.00 145.83 C222.00,143.54 221.76,141.91 221.47,142.20 C220.57,143.10 220.31,150.00 221.18,150.00 C221.63,150.00 222.00,148.12 222.00,145.83 ZM 47.00 147.51 C56.23,146.80 65.08,145.12 66.75,143.77 C70.80,140.48 65.62,139.48 41.00,138.78 L 32.50 138.54 L 32.18 142.37 C31.71,148.08 32.43,149.18 36.24,148.59 C38.03,148.32 42.88,147.83 47.00,147.51 ZM 170.55 144.08 C170.24,143.58 167.71,142.68 164.94,142.08 C155.67,140.09 154.02,141.12 162.67,143.49 C168.53,145.10 171.31,145.31 170.55,144.08 ZM 66.47 135.64 C69.57,133.38 67.69,131.33 61.83,130.63 C50.70,129.29 35.56,128.23 34.31,128.71 C33.59,128.99 33.00,130.52 33.00,132.11 L 33.00 135.00 L 42.75 135.10 C50.61,135.18 60.70,136.01 64.06,136.86 C64.37,136.94 65.45,136.39 66.47,135.64 ZM 180.47 134.96 C180.12,134.39 178.08,132.82 175.95,131.47 C172.76,129.46 171.77,128.02 170.46,123.53 C168.72,117.51 168.82,111.88 170.70,111.26 C171.53,110.99 171.74,111.87 171.36,114.18 C170.77,117.87 173.87,127.50 175.65,127.50 C176.25,127.50 178.26,125.51 180.12,123.08 C182.74,119.65 186.08,117.29 195.02,112.58 C212.16,103.53 212.41,103.31 209.72,99.63 C208.53,98.01 208.12,98.13 203.97,101.27 C201.51,103.13 196.36,106.13 192.52,107.94 C188.69,109.74 184.46,112.06 183.14,113.11 C181.81,114.15 179.96,115.00 179.02,115.00 C176.50,115.00 173.97,111.72 173.72,108.14 C173.46,104.49 173.13,104.42 166.50,106.80 L 161.50 108.60 L 161.36 115.88 C161.24,122.26 160.91,123.49 158.61,125.88 C157.18,127.38 156.00,129.32 156.00,130.20 C156.00,132.07 162.70,135.00 166.98,135.00 L 169.92 135.00 L 166.90 130.15 C164.30,125.96 163.93,124.52 164.20,119.48 C164.62,111.33 166.92,110.84 166.80,118.92 C166.73,123.91 167.19,125.69 169.42,129.06 C170.91,131.31 173.56,133.77 175.31,134.54 C179.14,136.20 181.35,136.38 180.47,134.96 ZM 68.00 121.94 C68.00,117.39 70.33,117.88 46.75,117.53 L 33.00 117.32 L 33.00 121.16 C33.00,124.65 33.25,125.01 35.75,125.12 C37.26,125.19 44.80,125.53 52.50,125.88 C60.20,126.23 66.84,126.37 67.25,126.20 C67.66,126.02 68.00,124.11 68.00,121.94 ZM 66.40 112.69 C67.50,111.89 68.06,110.45 67.84,108.94 L 67.50 106.50 L 50.75 106.23 C41.54,106.08 33.95,106.30 33.88,106.73 C33.10,111.81 33.49,112.50 37.50,113.11 C45.55,114.33 64.54,114.06 66.40,112.69 ZM 220.71 107.76 C220.47,106.52 220.26,107.30 220.25,109.50 C220.24,111.70 220.44,112.72 220.69,111.76 C220.94,110.81 220.95,109.01 220.71,107.76 ZM 67.89 100.40 C68.43,99.91 68.39,91.06 67.84,90.51 C67.60,90.27 62.82,92.41 57.22,95.28 C49.61,99.17 47.47,100.67 48.77,101.21 C50.39,101.88 67.03,101.18 67.89,100.40 ZM 220.68 97.81 C220.36,97.01 220.13,97.25 220.08,98.42 C220.04,99.47 220.27,100.06 220.60,99.73 C220.94,99.40 220.97,98.53 220.68,97.81 ZM 222.04 71.50 C222.46,44.41 221.99,25.89 220.90,26.56 C220.15,27.03 219.87,32.31 220.04,42.87 C220.17,51.47 220.01,64.98 219.68,72.91 C219.09,87.10 219.73,92.84 221.14,85.99 C221.54,84.07 221.94,77.55 222.04,71.50 ZM 98.78 61.81 C105.48,54.91 110.99,47.44 111.00,45.25 C111.01,42.15 107.94,44.71 101.00,53.57 C96.87,58.84 92.26,64.63 90.75,66.45 C87.42,70.46 87.00,73.19 90.15,70.40 C91.33,69.36 95.22,65.49 98.78,61.81 ZM 86.60 67.83 C87.96,65.64 88.27,47.03 86.98,45.47 C84.65,42.67 84.00,45.22 84.00,57.06 C84.00,68.11 84.68,70.94 86.60,67.83 ZM 95.23 57.75 C100.99,50.86 104.90,45.05 104.10,44.56 C103.65,44.28 100.51,44.54 97.14,45.13 L 91.00 46.21 L 91.00 53.61 C91.00,57.67 91.34,61.00 91.76,61.00 C92.18,61.00 93.74,59.54 95.23,57.75 ZM 215.88 20.91 C226.42,19.18 227.00,19.02 227.00,17.89 C227.00,16.44 218.14,17.65 211.00,20.07 C204.71,22.20 206.34,22.48 215.88,20.91 ZM 189.57 475.08 C188.50,473.90 187.92,471.86 188.06,469.83 C188.60,462.02 188.59,462.00 182.08,462.00 C175.44,462.00 173.00,461.35 173.00,459.58 C173.00,457.82 190.38,457.54 191.82,459.28 C192.41,459.99 193.03,463.25 193.19,466.53 L 193.50 472.50 L 211.50 472.15 C221.40,471.96 229.68,471.63 229.89,471.42 C230.11,471.22 230.34,468.14 230.41,464.59 C230.48,461.04 230.81,457.86 231.15,457.52 C232.01,456.66 249.45,456.45 249.75,457.30 C250.55,459.53 249.39,460.00 243.12,460.00 C234.73,460.00 233.81,460.87 234.12,468.45 C234.24,471.53 233.93,474.44 233.42,474.91 C232.92,475.38 223.23,476.04 211.91,476.38 C192.42,476.97 191.22,476.90 189.57,475.08 ZM 51.00 410.12 C51.00,409.19 55.12,407.79 55.81,408.47 C56.02,408.69 55.90,409.35 55.54,409.93 C54.75,411.22 51.00,411.37 51.00,410.12 ZM 54.55 265.22 C54.28,264.94 54.29,264.33 54.59,263.86 C55.29,262.73 60.00,262.75 60.00,263.88 C60.00,264.86 55.34,266.00 54.55,265.22 ZM 53.00 255.83 C53.00,254.75 54.88,254.44 59.06,254.83 C64.71,255.37 63.93,256.66 58.00,256.57 C55.25,256.53 53.00,256.20 53.00,255.83 ZM 52.00 247.11 C52.00,246.02 53.13,245.86 57.25,246.35 C60.14,246.70 63.29,246.99 64.25,246.99 C65.21,247.00 66.00,247.37 66.00,247.83 C66.00,248.28 62.85,248.62 59.00,248.58 C53.74,248.52 52.00,248.16 52.00,247.11 ZM 47.50 240.00 C47.10,239.36 50.32,239.00 56.44,239.00 C62.15,239.00 66.00,239.40 66.00,240.00 C66.00,240.59 62.35,241.00 57.06,241.00 C52.14,241.00 47.84,240.55 47.50,240.00 ZM 49.50 226.02 C47.03,224.94 46.33,225.03 59.50,224.74 C66.08,224.60 70.70,224.90 71.00,225.50 C71.64,226.77 52.29,227.24 49.50,226.02 ZM 102.25 364.81 C100.89,363.45 98.74,362.73 95.66,362.60 C90.24,362.39 89.16,361.58 90.79,358.97 C91.45,357.90 92.00,355.67 92.00,354.01 C92.00,351.22 92.89,350.23 94.22,351.55 C94.52,351.85 94.41,353.68 93.98,355.61 C93.25,358.83 93.36,359.09 95.34,358.81 C97.55,358.49 99.16,354.00 97.07,354.00 C96.48,354.00 96.00,353.56 96.00,353.02 C96.00,352.49 97.69,352.09 99.75,352.14 C101.81,352.20 105.35,351.91 107.62,351.51 C110.33,351.02 111.98,351.16 112.43,351.89 C113.25,353.21 112.17,353.63 105.75,354.49 C101.90,355.00 101.00,355.50 101.00,357.10 C101.00,360.60 103.98,364.00 107.06,364.00 C109.51,364.00 112.48,365.88 110.31,366.07 C109.86,366.11 108.33,366.29 106.89,366.49 C105.24,366.71 103.53,366.09 102.25,364.81 ZM 109.43 360.52 C107.68,359.20 107.66,359.06 109.25,359.03 C110.21,359.01 111.00,358.35 111.00,357.55 C111.00,356.50 112.10,356.15 115.01,356.27 C119.06,356.43 120.02,358.19 116.42,358.85 C115.36,359.05 113.79,359.83 112.93,360.60 C111.59,361.78 111.08,361.77 109.43,360.52 ZM 107.00 288.16 C107.00,287.34 111.40,284.97 112.80,285.03 C113.81,285.08 108.96,289.00 107.89,289.00 C107.40,289.00 107.00,288.62 107.00,288.16 ZM 108.00 284.12 C108.00,283.57 108.45,282.84 109.00,282.50 C109.55,282.16 110.00,282.33 110.00,282.88 C110.00,283.43 109.55,284.16 109.00,284.50 C108.45,284.84 108.00,284.67 108.00,284.12 ZM 166.50 197.96 C163.20,197.52 158.48,196.46 156.00,195.60 C153.52,194.74 150.52,194.02 149.32,194.01 C146.26,193.99 144.26,191.64 144.49,188.33 C144.60,186.77 144.76,181.28 144.84,176.13 L 145.00 166.77 L 152.75 167.47 C157.01,167.86 162.75,168.64 165.50,169.19 C168.25,169.75 172.23,170.55 174.35,170.98 C176.46,171.42 178.93,172.50 179.82,173.39 C181.82,175.39 182.15,182.88 180.66,192.25 L 179.59 199.00 L 176.04 198.87 C174.09,198.80 169.80,198.39 166.50,197.96 ZM 177.81 186.82 C178.87,179.05 178.84,177.41 177.65,176.22 C176.27,174.84 161.63,171.29 153.25,170.30 L 149.00 169.80 L 149.00 174.25 C149.00,176.70 148.71,181.47 148.36,184.85 L 147.72 191.00 L 150.69 191.00 C152.33,191.00 156.33,191.87 159.58,192.92 C165.41,194.82 169.04,195.55 174.03,195.85 C176.48,196.00 176.60,195.71 177.81,186.82 ZM 92.22 191.73 C90.72,191.31 87.03,190.99 84.00,191.02 C80.97,191.05 75.57,190.82 72.00,190.50 C68.43,190.18 62.67,189.82 59.21,189.71 C54.89,189.57 52.63,189.03 51.98,188.00 C51.46,187.18 51.02,182.21 51.02,176.97 C50.99,163.21 50.11,163.68 75.41,163.99 C86.46,164.12 96.18,164.18 97.00,164.12 C97.82,164.06 105.88,163.73 114.90,163.38 C130.30,162.79 131.27,162.86 130.63,164.52 C129.58,167.27 128.03,184.13 128.50,187.80 C128.75,189.82 128.45,191.25 127.71,191.50 C125.37,192.29 94.90,192.49 92.22,191.73 ZM 122.62 188.16 L 125.74 188.00 L 125.96 179.75 C126.08,175.21 126.25,170.38 126.34,169.00 L 126.50 166.50 L 117.00 166.47 C111.78,166.45 106.19,166.69 104.59,166.99 L 101.68 167.55 L 101.90 175.27 C102.13,182.96 101.82,183.63 98.58,182.39 C96.56,181.62 96.45,174.57 98.41,170.83 L 99.80 168.15 L 92.65 167.59 C76.32,166.31 57.82,166.02 55.94,167.03 C54.24,167.94 54.00,169.19 54.00,177.07 C54.00,183.38 54.37,186.18 55.25,186.46 C55.94,186.68 64.81,187.14 74.97,187.48 C85.12,187.82 93.57,188.24 93.75,188.41 C94.04,188.71 115.84,188.52 122.62,188.16 ZM 16.68 196.25 C16.44,195.84 16.61,190.82 17.07,185.09 C17.89,174.72 18.58,173.05 22.05,173.02 C22.90,173.01 24.03,172.60 24.55,172.11 C25.39,171.31 39.36,166.00 40.60,166.00 C41.06,166.00 40.85,168.71 39.37,182.00 C38.73,187.81 36.81,191.00 33.98,191.00 C33.04,191.00 29.30,192.35 25.66,194.00 C18.72,197.15 17.40,197.48 16.68,196.25 ZM 26.31 190.90 C36.28,186.86 35.66,187.57 36.36,179.30 C36.71,175.17 36.75,171.40 36.45,170.92 C35.96,170.13 28.91,172.32 26.50,174.02 C25.95,174.41 24.26,175.02 22.75,175.38 C20.02,176.03 20.00,176.09 20.00,184.52 C20.00,189.18 20.25,193.00 20.56,193.00 C20.88,193.00 23.46,192.05 26.31,190.90 ZM 179.00 108.00 C179.00,107.45 180.24,107.01 181.75,107.02 C183.89,107.03 184.17,107.24 183.00,108.00 C181.04,109.26 179.00,109.26 179.00,108.00 ZM 180.50 103.00 C180.84,102.45 181.79,102.00 182.62,102.00 C183.44,102.00 183.84,102.45 183.50,103.00 C183.16,103.55 182.21,104.00 181.38,104.00 C180.56,104.00 180.16,103.55 180.50,103.00 ZM 177.00 98.71 C177.00,95.95 178.33,95.11 179.56,97.10 C179.93,97.70 179.51,98.92 178.62,99.81 C177.13,101.30 177.00,101.22 177.00,98.71 ZM 167.96 188.39 C166.37,184.22 167.10,180.50 169.50,180.50 C171.23,180.50 171.50,181.17 171.50,185.42 C171.50,191.06 169.58,192.67 167.96,188.39 ZM 153.98 185.96 C153.38,184.83 153.02,182.25 153.19,180.21 C153.43,177.36 153.93,176.50 155.38,176.50 C156.41,176.50 157.84,177.40 158.55,178.50 C159.62,180.16 159.57,181.15 158.31,184.25 C156.58,188.50 155.55,188.90 153.98,185.96 ZM 80.65 183.25 C80.36,182.77 79.82,180.09 79.44,177.29 C78.85,172.79 79.01,172.07 80.82,171.10 C81.95,170.49 83.14,170.00 83.48,170.00 C84.63,170.00 83.53,183.33 82.34,183.72 C81.70,183.93 80.94,183.72 80.65,183.25 ZM 61.67 181.33 C60.67,180.34 60.89,172.72 61.96,171.03 C63.41,168.74 64.14,170.33 64.42,176.41 C64.66,181.67 63.71,183.38 61.67,181.33 ZM 114.67 181.33 C114.30,180.97 114.00,178.54 114.00,175.94 C114.00,172.54 114.45,171.04 115.59,170.60 C118.14,169.62 118.52,170.48 118.16,176.40 C117.84,181.63 116.65,183.31 114.67,181.33 ZM 27.20 186.80 C25.89,185.49 25.69,182.77 26.63,179.25 C27.62,175.57 28.77,176.68 29.23,181.75 C29.71,186.97 29.04,188.64 27.20,186.80 Z" fill="rgba(0,0,0,1)"/>
</g>
</svg>